name ./resultDataOpenSim/trcMotMarkerGrf/sub10/grf-01-04.mot
datacolumns 19
datarows 27
range 1.40000000 1.50400000
endheader

                time	     ground_force_vx	     ground_force_vy	     ground_force_vz	     ground_force_px	     ground_force_py	     ground_force_pz	   l_ground_force_vx	   l_ground_force_vy	   l_ground_force_vz	   l_ground_force_px	   l_ground_force_py	   l_ground_force_pz	     ground_torque_x	     ground_torque_y	     ground_torque_z	   l_ground_torque_x	   l_ground_torque_y	   l_ground_torque_z	
          1.40000000	        -21.75948597	        372.76898955	        -14.08355273	          0.86357434	          0.00000000	         -0.03788748	          0.00000000	          0.00000000	          0.00000000	          0.00000000	          0.00000000	          0.00000000	          0.00000000	          1.46195313	          0.00000000	          0.00000000	          0.00000000	          0.00000000	
          1.40400000	        -21.22746197	        371.95991157	        -14.16066636	          0.86446071	          0.00000000	         -0.03798892	          0.00000000	          0.00000000	          0.00000000	          0.00000000	          0.00000000	          0.00000000	          0.00000000	          1.48533023	          0.00000000	          0.00000000	          0.00000000	          0.00000000	
          1.40800000	        -20.06938549	        371.76229037	        -14.74527243	          0.86504432	          0.00000000	         -0.03807029	          0.00000000	          0.00000000	          0.00000000	          0.00000000	          0.00000000	          0.00000000	          0.00000000	          1.54947576	          0.00000000	          0.00000000	          0.00000000	          0.00000000	
          1.41200000	        -18.11637877	        372.09760974	        -15.81567215	          0.86533289	          0.00000000	         -0.03813358	          0.00000000	          0.00000000	          0.00000000	          0.00000000	          0.00000000	          0.00000000	          0.00000000	          1.66614680	          0.00000000	          0.00000000	          0.00000000	          0.00000000	
          1.41600000	        -15.42646419	        372.96245850	        -17.25527370	          0.86537032	          0.00000000	         -0.03819105	          0.00000000	          0.00000000	          0.00000000	          0.00000000	          0.00000000	          0.00000000	          0.00000000	          1.83774354	          0.00000000	          0.00000000	          0.00000000	          0.00000000	
          1.42000000	        -12.24946294	        374.41763490	        -18.88788822	          0.86521056	          0.00000000	         -0.03827033	          0.00000000	          0.00000000	          0.00000000	          0.00000000	          0.00000000	          0.00000000	          0.00000000	          2.05605209	          0.00000000	          0.00000000	          0.00000000	          0.00000000	
          1.42400000	         -8.95578681	        376.56396913	        -20.50605598	          0.86493552	          0.00000000	         -0.03840502	          0.00000000	          0.00000000	          0.00000000	          0.00000000	          0.00000000	          0.00000000	          0.00000000	          2.30485936	          0.00000000	          0.00000000	          0.00000000	          0.00000000	
          1.42800000	         -5.94324153	        379.52854474	        -21.88670926	          0.86463852	          0.00000000	         -0.03862440	          0.00000000	          0.00000000	          0.00000000	          0.00000000	          0.00000000	          0.00000000	          0.00000000	          2.56539952	          0.00000000	          0.00000000	          0.00000000	          0.00000000	
          1.43200000	         -3.54204004	        383.46118413	        -22.81012012	          0.86440103	          0.00000000	         -0.03895116	          0.00000000	          0.00000000	          0.00000000	          0.00000000	          0.00000000	          0.00000000	          0.00000000	          2.82199375	          0.00000000	          0.00000000	          0.00000000	          0.00000000	
          1.43600000	         -1.93714637	        388.51390396	        -23.09472258	          0.86428047	          0.00000000	         -0.03939629	          0.00000000	          0.00000000	          0.00000000	          0.00000000	          0.00000000	          0.00000000	          0.00000000	          3.06545522	          0.00000000	          0.00000000	          0.00000000	          0.00000000	
          1.44000000	         -1.12088438	        394.79258774	        -22.63836060	          0.86429085	          0.00000000	         -0.03996120	          0.00000000	          0.00000000	          0.00000000	          0.00000000	          0.00000000	          0.00000000	          0.00000000	          3.29348941	          0.00000000	          0.00000000	          0.00000000	          0.00000000	
          1.44400000	         -0.88788250	        402.31693605	        -21.44787778	          0.86440413	          0.00000000	         -0.04063857	          0.00000000	          0.00000000	          0.00000000	          0.00000000	          0.00000000	          0.00000000	          0.00000000	          3.50905226	          0.00000000	          0.00000000	          0.00000000	          0.00000000	
          1.44800000	         -0.88426378	        411.01790516	        -19.64432945	          0.86456901	          0.00000000	         -0.04140860	          0.00000000	          0.00000000	          0.00000000	          0.00000000	          0.00000000	          0.00000000	          0.00000000	          3.71824587	          0.00000000	          0.00000000	          0.00000000	          0.00000000	
          1.45200000	         -0.70462490	        420.75570092	        -17.44216162	          0.86473131	          0.00000000	         -0.04224072	          0.00000000	          0.00000000	          0.00000000	          0.00000000	          0.00000000	          0.00000000	          0.00000000	          3.92867578	          0.00000000	          0.00000000	          0.00000000	          0.00000000	
          1.45600000	         -0.00104781	        431.33523764	        -15.11076841	          0.86485414	          0.00000000	         -0.04309726	          0.00000000	          0.00000000	          0.00000000	          0.00000000	          0.00000000	          0.00000000	          0.00000000	          4.14809355	          0.00000000	          0.00000000	          0.00000000	          0.00000000	
          1.46000000	          1.43533858	        442.52240895	        -12.92976738	          0.86492690	          0.00000000	         -0.04394112	          0.00000000	          0.00000000	          0.00000000	          0.00000000	          0.00000000	          0.00000000	          0.00000000	          4.38262589	          0.00000000	          0.00000000	          0.00000000	          0.00000000	
          1.46400000	          3.63623538	        454.07138977	        -11.14905388	          0.86495239	          0.00000000	         -0.04474609	          0.00000000	          0.00000000	          0.00000000	          0.00000000	          0.00000000	          0.00000000	          0.00000000	          4.63437790	          0.00000000	          0.00000000	          0.00000000	          0.00000000	
          1.46800000	          6.46004623	        465.76222378	         -9.96017947	          0.86494233	          0.00000000	         -0.04549799	          0.00000000	          0.00000000	          0.00000000	          0.00000000	          0.00000000	          0.00000000	          0.00000000	          4.89924335	          0.00000000	          0.00000000	          0.00000000	          0.00000000	
          1.47200000	          9.63705599	        477.43521322	         -9.47723381	          0.86493412	          0.00000000	         -0.04618912	          0.00000000	          0.00000000	          0.00000000	          0.00000000	          0.00000000	          0.00000000	          0.00000000	          5.16636562	          0.00000000	          0.00000000	          0.00000000	          0.00000000	
          1.47600000	         12.85283490	        488.99885903	         -9.72316473	          0.86497964	          0.00000000	         -0.04681664	          0.00000000	          0.00000000	          0.00000000	          0.00000000	          0.00000000	          0.00000000	          0.00000000	          5.42018205	          0.00000000	          0.00000000	          0.00000000	          0.00000000	
          1.48000000	         15.84633264	        500.40344531	        -10.62398257	          0.86511291	          0.00000000	         -0.04738383	          0.00000000	          0.00000000	          0.00000000	          0.00000000	          0.00000000	          0.00000000	          0.00000000	          5.64459743	          0.00000000	          0.00000000	          0.00000000	          0.00000000	
          1.48400000	         18.48097171	        511.60980476	        -12.01773705	          0.86534002	          0.00000000	         -0.04789942	          0.00000000	          0.00000000	          0.00000000	          0.00000000	          0.00000000	          0.00000000	          0.00000000	          5.82756382	          0.00000000	          0.00000000	          0.00000000	          0.00000000	
          1.48800000	         20.76270069	        522.59298558	        -13.67990271	          0.86565022	          0.00000000	         -0.04837395	          0.00000000	          0.00000000	          0.00000000	          0.00000000	          0.00000000	          0.00000000	          0.00000000	          5.96413068	          0.00000000	          0.00000000	          0.00000000	          0.00000000	
          1.49200000	         22.81862732	        533.37981754	        -15.36318090	          0.86602651	          0.00000000	         -0.04881669	          0.00000000	          0.00000000	          0.00000000	          0.00000000	          0.00000000	          0.00000000	          0.00000000	          6.05700086	          0.00000000	          0.00000000	          0.00000000	          0.00000000	
          1.49600000	         24.86118250	        544.07880987	        -16.84867765	          0.86645005	          0.00000000	         -0.04923709	          0.00000000	          0.00000000	          0.00000000	          0.00000000	          0.00000000	          0.00000000	          0.00000000	          6.11501474	          0.00000000	          0.00000000	          0.00000000	          0.00000000	
          1.50000000	         27.13905649	        554.87303567	        -17.99304988	          0.86688281	          0.00000000	         -0.04964194	          0.00000000	          0.00000000	          0.00000000	          0.00000000	          0.00000000	          0.00000000	          0.00000000	          6.15079392	          0.00000000	          0.00000000	          0.00000000	          0.00000000	
          1.50400000	         29.86972641	        565.98647579	        -18.74957631	          0.86728684	          0.00000000	         -0.05003346	          0.00000000	          0.00000000	          0.00000000	          0.00000000	          0.00000000	          0.00000000	          0.00000000	          6.17859044	          0.00000000	          0.00000000	          0.00000000	          0.00000000	
